<?xml version="1.0" encoding="UTF-8" standalone="no"?>
<svg
   xmlns:dc="http://purl.org/dc/elements/1.1/"
   xmlns:cc="http://creativecommons.org/ns#"
   xmlns:rdf="http://www.w3.org/1999/02/22-rdf-syntax-ns#"
   xmlns:svg="http://www.w3.org/2000/svg"
   xmlns="http://www.w3.org/2000/svg"
   xmlns:sodipodi="http://sodipodi.sourceforge.net/DTD/sodipodi-0.dtd"
   xmlns:inkscape="http://www.inkscape.org/namespaces/inkscape"
   inkscape:version="1.0beta1 (fe3e306, 2019-09-17)"
   sodipodi:docname="logo-alpha.svg"
   viewBox="0 0 900 699.90002"
   height="699.90002"
   width="900"
   id="svg2"
   version="1.1">
  <metadata
     id="metadata8">
    <rdf:RDF>
      <cc:Work
         rdf:about="">
        <dc:format>image/svg+xml</dc:format>
        <dc:type
           rdf:resource="http://purl.org/dc/dcmitype/StillImage" />
        <dc:title></dc:title>
      </cc:Work>
    </rdf:RDF>
  </metadata>
  <defs
     id="defs6" />
  <sodipodi:namedview
     inkscape:current-layer="g10"
     inkscape:window-maximized="1"
     inkscape:window-y="452"
     inkscape:window-x="-8"
     inkscape:cy="340.96222"
     inkscape:cx="485.91694"
     inkscape:zoom="0.74167645"
     showgrid="false"
     id="namedview4"
     inkscape:window-height="1017"
     inkscape:window-width="1920"
     inkscape:pageshadow="2"
     inkscape:pageopacity="0"
     guidetolerance="10"
     gridtolerance="10"
     objecttolerance="10"
     borderopacity="1"
     inkscape:document-rotation="0"
     bordercolor="#666666"
     pagecolor="#ffffff" />
  <g
     transform="translate(-1094.4915,-499.57627)"
     id="g10"
     inkscape:label="Image"
     inkscape:groupmode="layer">
    <path
       inkscape:connector-curvature="0"
       id="path837"
       d="m 1544.4915,1199.4763 h -450 V 849.52628 499.57627 h 450 450 v 349.95001 349.95002 z m -316.03,-39.3 h 0.1434 l 26.9183,-19.9946 26.9183,-19.9947 0.078,-0.059 0.078,-0.059 17.743,-45.3605 17.743,-45.3604 0.2162,0.2387 0.2163,0.2387 6.4875,19.5001 6.4875,19.5 v 0.225 0.2249 h -9.1323 -9.1323 l -0.2427,0.375 -0.2427,0.375 -7.5366,19.8 -7.5366,19.8 23.7366,0.15 23.7366,0.15 1.6801,4.95 1.6801,4.95 38.0678,0.076 38.0679,0.076 18.677,-18.6752 18.677,-18.6753 v 18.6741 18.6741 h 20.25 20.25 v -50.5618 -50.5618 l 16.875,0.092 16.875,0.092 1.3668,0.5281 1.3668,0.5281 1.0891,0.8978 1.0892,0.8977 0.844,1.7189 0.8441,1.7189 v 3.6 3.6 l -0.6949,1.5355 -0.6949,1.5355 -0.9551,0.9241 -0.9551,0.9242 -1.5,0.6904 -1.5,0.6903 -11.925,0.088 -11.925,0.088 v 20.2596 20.2597 l 14.625,-0.1237 14.625,-0.1236 3.15,-0.5179 3.15,-0.5178 2.9137,-0.7334 2.9136,-0.7334 2.1864,-0.7813 2.1863,-0.7812 2.9626,-1.5135 2.9626,-1.5136 2.3576,-1.748 2.3576,-1.7481 1.7298,-1.7299 1.7298,-1.73 1.3641,-1.7999 1.364,-1.7998 0.9484,-1.5068 0.9485,-1.5067 1.2085,-2.5788 1.2085,-2.5789 0.9138,-2.7965 0.9139,-2.7966 0.7274,-3.6179 0.7273,-3.6178 0.3533,-4.05 0.3534,-4.05 -0.1706,-6.15 -0.1705,-6.15 -0.4685,-3 -0.4686,-3 -0.4678,-2.0812 -0.4678,-2.0811 -1.0322,-3.193 -1.0322,-3.1929 -1.4815,-2.9099 -1.4816,-2.90999 -1.4156,-1.98384 -1.4157,-1.98387 -1.9523,-2.06949 -1.9522,-2.06949 -1.8473,-1.46997 -1.8474,-1.46997 -2.2617,-1.33719 -2.2618,-1.33719 -2.5179,-1.10805 -2.5179,-1.10805 -3.5227,-1.01484 -3.5227,-1.01487 -4.1273,-0.66915 -4.1273,-0.66915 -44.55,-0.0976 -44.55,-0.0976 5.025,5.03739 5.025,5.03736 v 45.52176 45.5218 h -18.75 -18.75 v -50.55 -50.54998 h -25.2717 -25.2717 l 5.0225,5.02896 5.0224,5.02899 -0.076,58.50363 -0.076,58.5035 -22.6777,-63.4575 -22.6778,-63.45758 -25.1692,-0.0767 -25.1693,-0.0767 3.5331,3.54237 3.5332,3.5424 -33.0428,86.23431 -33.0428,86.2344 -0.405,1.125 -0.405,1.125 z m 471.824,0 h 0.094 l 26.981,-20.0507 26.981,-20.0506 17.6049,-44.9744 17.6049,-44.9743 0.2785,-0.45 0.2785,-0.45 6.5769,19.95 6.5769,19.95 -9.2701,0.15 -9.2702,0.15 -7.4538,19.6029 -7.4538,19.6029 -0.181,0.5703 -0.181,0.5703 23.7729,0.077 23.7729,0.077 1.6651,5.025 1.6652,5.025 h 20.1816 20.1816 v -0.1483 -0.1482 l -24.785,-69.3768 -24.785,-69.37675 -0.4432,-1.275 -0.4432,-1.275 h -25.0921 -25.0921 l 3.4908,3.525 3.4908,3.525 -19.3955,50.59165 -19.3955,50.5917 -0.076,-54.1167 -0.076,-54.11665 h -20.2475 -20.2475 l -0.077,25.27505 -0.077,25.275 h -25.2 -25.2 l -0.077,-25.275 -0.077,-25.27505 h -25.2699 -25.27 l 5.0217,5.02821 5.0217,5.02821 v 65.77183 65.7718 h 20.25 20.25 v -25.2 -25.2 h 25.35 25.35 v 25.197 25.197 l 13.9065,0.078 13.9065,0.078 -7.5973,19.8 -7.5974,19.8 -0.01,0.225 -0.01,0.225 h 0.094 z M 1543.8774,922.57628 h 41.0001 l 68.5844,-78.49557 68.5844,-78.4956 -24.7516,-49.50245 -24.7516,-49.50244 -8.985,-55.82697 -8.985,-55.82698 -1.9578,-7.64204 -1.9579,-7.64205 -0.058,-0.0543 -0.058,-0.0543 -49.35,34.75613 -49.35,34.75612 -7.7605,0.0152 -7.7605,0.0152 -10.3895,-7.25837 -10.3894,-7.25842 -28.95,-20.24856 -28.95,-20.24855 -10.65,-7.71117 -10.65,-7.71117 -0.2257,0.79309 -0.2257,0.79309 -10.2121,63.15 -10.2122,63.15 -24.2421,48.71357 -24.2422,48.71357 2.2107,3.97608 2.2106,3.97608 65.7373,75.33537 65.7373,75.33534 z m -13.0509,-32.13195 -0.285,-0.0319 -6.6,-2.3028 -6.6,-2.30283 -17.49,-19.79025 -17.4901,-19.79025 -2.7704,-3.45 -2.7704,-3.45 -1.3914,-1.8 -1.3914,-1.8 -3.9298,-22.2 -3.9298,-22.2 -1.9806,-8.7 -1.9806,-8.7 -0.092,-0.10456 -0.092,-0.10456 -11.1925,13.08911 -11.1925,13.08912 -0.3029,-0.40943 -0.303,-0.40943 -16.5,-19.13246 -16.5,-19.13246 -0.089,-1.10083 -0.089,-1.10083 4.589,-9.39638 4.589,-9.39639 30.4476,-18.7089 30.4476,-18.70891 0.9024,0.85892 0.9024,0.85891 25.6064,23.69342 25.6065,23.69341 3.4251,7.53903 3.425,7.53903 1.5779,5.0221 1.5779,5.02209 4.5294,0.0826 4.5294,0.0826 1.2307,-2.93261 1.2307,-2.93262 3.8559,-9.23304 3.8559,-9.23303 18.5746,-17.28781 18.5746,-17.28781 8.2261,-7.82916 8.2261,-7.82915 0.2928,0.0896 0.2928,0.0896 13.8311,8.63431 13.8311,8.6343 16.2013,10.00318 16.2014,10.00318 2.2003,3.60133 2.2002,3.60133 2.3809,6.91069 2.3808,6.91069 -0.1436,0.3742 -0.1435,0.3742 -15.9504,18.68666 -15.9504,18.68665 -0.5177,0.54587 -0.5177,0.54589 -4.0817,-4.63997 -4.0817,-4.63996 -7.3641,-8.61054 -7.3641,-8.61046 v 0.11526 0.11525 l -2.4123,11.98938 -2.4123,11.98937 -3.5781,19.58274 -3.578,19.58277 -6.3847,7.41828 -6.3846,7.41825 -14.3567,16.68264 -14.3567,16.68264 -7.5151,2.59452 -7.5151,2.59449 -0.095,-0.0945 -0.095,-0.0945 14.7028,-13.32933 14.7027,-13.3293 -0.4128,-0.30432 -0.4128,-0.30432 -3.3244,-2.82642 -3.3244,-2.82642 -9.9665,-3.69858 -9.9665,-3.69858 h -14.9995 -14.9995 l -9.3332,3.57342 -9.3332,3.57342 -5.3206,1.90158 -5.3206,1.90158 1.1206,1.08597 1.1206,1.086 14.4,13.58481 14.4,13.58478 0.285,0.25422 0.285,0.25422 z m 37.29,-102.96559 0.225,-0.13295 20.1,-6.22498 20.1,-6.22498 2.1517,-2.13478 2.1517,-2.13477 5.6049,-13.61639 5.6049,-13.61639 -2.6566,-2.6521 -2.6566,-2.6521 -15.15,4.97023 -15.15,4.97023 -0.3436,0.34826 -0.3436,0.34826 -9.9314,19.24141 -9.9314,19.24141 v 0.20129 0.2013 z m -57.7013,-2.90793 0.5736,0.005 2.8018,-2.106 2.8019,-2.10601 -2.6205,-5.01899 -2.6206,-5.019 -5.705,-10.93125 -5.7049,-10.93124 -15.4915,-5.15832 -15.4915,-5.15831 -2.5835,2.5955 -2.5835,2.59549 v 0.22623 0.22622 l 6.171,14.61784 6.171,14.61784 0.354,0.32007 0.354,0.32007 4.05,1.31036 4.05,1.31035 12.45,4.13911 12.45,4.13911 0.5737,0.005 z m 128.2007,-123.12528 -0.074,0.068 -7.65,-3.43176 -7.65,-3.43176 -9.075,-4.07418 -9.075,-4.07419 v -0.42258 -0.42259 l 11.8766,-20.9151 11.8766,-20.9151 0.2106,-0.22223 0.2107,-0.22224 4.7121,28.99787 4.7121,28.99787 z m -189.1014,-0.16926 h -0.1502 l 0.1608,-0.975 0.1608,-0.975 0.3126,-2.55 0.3126,-2.55 4.0852,-25.35 4.0853,-25.35 0.1949,-0.22494 0.1949,-0.22495 11.9101,21.25293 11.91,21.25294 v 0.29886 0.29886 l -0.675,0.31586 -0.675,0.31587 -13.2,6.06378 -13.2,6.06378 -2.6384,1.16851 -2.6385,1.1685 z"
       style="fill:#ffffff;stroke-width:0.3;fill-opacity:1;opacity:0.7" />
  </g>
</svg>
