<?xml version="1.0" encoding="UTF-8" standalone="no"?>
<svg
   xmlns:dc="http://purl.org/dc/elements/1.1/"
   xmlns:cc="http://creativecommons.org/ns#"
   xmlns:rdf="http://www.w3.org/1999/02/22-rdf-syntax-ns#"
   xmlns:svg="http://www.w3.org/2000/svg"
   xmlns="http://www.w3.org/2000/svg"
   xmlns:sodipodi="http://sodipodi.sourceforge.net/DTD/sodipodi-0.dtd"
   xmlns:inkscape="http://www.inkscape.org/namespaces/inkscape"
   xml:space="preserve"
   viewBox="0 0 798.85802 798.50416"
   y="0px"
   x="0px"
   sodipodi:docname="logo-instagram.svg"
   inkscape:version="1.0beta1 (fe3e306, 2019-09-17)"
   id="svg8"
   version="1.1"
   width="798.85803"
   height="798.50415"><metadata
   id="metadata16">
  <rdf:RDF>
    <cc:Work
   rdf:about="">
      <dc:format>image/svg+xml</dc:format>


      <dc:type
   rdf:resource="http://purl.org/dc/dcmitype/StillImage" />


      <dc:title />


    </cc:Work>


  </rdf:RDF>


</metadata>


<defs
   id="defs14" />



<style
   id="style2"
   type="text/css">
	.st0{fill:#FFFFFF;}
	.st1{fill:#FFFFFF;stroke:#FFFFFF;stroke-width:10;stroke-miterlimit:10;}
</style>



<sodipodi:namedview
   inkscape:pagecheckerboard="true"
   showgrid="false"
   pagecolor="#ffffff"
   inkscape:zoom="0.7"
   inkscape:window-y="460"
   inkscape:window-x="126"
   inkscape:window-width="1778"
   inkscape:window-maximized="0"
   inkscape:window-height="1040"
   inkscape:pageshadow="2"
   inkscape:pageopacity="0.0"
   inkscape:document-units="mm"
   inkscape:document-rotation="0"
   inkscape:cy="512.46274"
   inkscape:cx="480.99861"
   inkscape:current-layer="svg8"
   id="base"
   borderopacity="1.0"
   bordercolor="#666666">
	</sodipodi:namedview>


















<path
   style="fill:#ffffff;fill-opacity:1"
   d="M 198.98722,797.80277 C 103.61368,787.96047 24.176668,716.55039 4.4458979,622.9194 -0.04013209,601.63125 0.02733791,605.0228 0.00674791,399.76114 -0.01485209,184.31239 -0.28758209,194.13812 6.4556779,167.4194 16.432958,127.88656 35.716388,94.057196 64.920704,64.852876 94.227014,35.546565 127.77465,16.421896 167.48722,6.3822859 194.53635,-0.45592411 184.67746,-0.19653411 404.98723,0.13358589 l 198.50005,0.29743 11.5,2.22142001 c 47.2911,9.1350801 86.0903,29.4463891 118.9702,62.2807701 36.851,36.799964 59.4233,85.080604 64.0444,136.986194 0.7857,8.82558 1.0087,69.23311 0.7586,205.5 -0.3264,177.83551 -0.4907,193.78017 -2.0917,202.92925 -4.1272,23.58511 -9.8715,41.72115 -19.7557,62.37327 -21.9484,45.85926 -58.2641,82.17491 -104.1233,104.12335 -20.4701,9.7971 -35.9376,14.7636 -60.3025,19.3628 -10.8768,2.0531 -13.2077,2.0785 -208.00005,2.2741 -108.35,0.1088 -200.82501,-0.197 -205.50001,-0.6794 z M 425.07823,619.85291 c 88.0661,-11.1692 159.72275,-70.74007 186.36645,-154.93351 10.6913,-33.78415 12.6389,-77.46443 4.9991,-112.11787 -9.3462,-42.39383 -29.8282,-79.91489 -60.3601,-110.57398 -44.81669,-45.00351 -109.54655,-69.33207 -171.53618,-64.47147 -15.08648,1.18293 -34.62358,4.4797 -45.56027,7.68802 -65.09126,19.09478 -116.90029,64.46342 -143.28735,125.4753 -26.0246,60.1738 -24.50917,126.75748 4.22194,185.5 32.83933,67.14202 96.23585,112.88301 170.50903,123.02336 11.47841,1.56713 43.62271,1.80838 54.64738,0.41015 z m -51.591,-89.99432 C 317.1961,518.171 275.68839,474.14807 267.4722,417.4194 c -9.51048,-65.66509 32.44985,-129.10338 97.01503,-146.67349 61.26227,-16.67129 126.43496,12.74467 153.96215,69.49145 9.96882,20.55054 13.53957,35.99475 13.53466,58.5401 -0.005,23.0952 -3.62692,39.31039 -13.14943,58.87027 -16.35321,33.59058 -48.4538,60.43948 -83.44953,69.79711 -18.56203,4.96337 -44.70752,5.98293 -61.89785,2.41375 z m 308.50005,-355.7806 c 7.0718,-2.75719 14.4539,-8.3926 19.2332,-14.68249 9.9736,-13.126 11.4786,-32.35955 3.7219,-47.56393 -3.5829,-7.0232 -11.6625,-14.658094 -19.7393,-18.652994 -6.9462,-3.43568 -8.4414,-3.78867 -17.3746,-4.10184 -8.0011,-0.2805 -10.9599,0.0519 -16.3091,1.83198 -13.0401,4.33944 -24.3954,15.967534 -28.2107,28.888404 -2.278,7.71459 -2.0319,20.00197 0.5478,27.35536 4.7651,13.58224 17.4306,25.36982 30.8767,28.73642 6.3271,1.58417 21.0563,0.60549 27.2541,-1.81091 z"
   id="path1113"
   inkscape:connector-curvature="0" />

</svg>
