<?xml version="1.0" encoding="UTF-8" standalone="no"?>
<svg
   xmlns:dc="http://purl.org/dc/elements/1.1/"
   xmlns:cc="http://creativecommons.org/ns#"
   xmlns:rdf="http://www.w3.org/1999/02/22-rdf-syntax-ns#"
   xmlns:svg="http://www.w3.org/2000/svg"
   xmlns="http://www.w3.org/2000/svg"
   xmlns:sodipodi="http://sodipodi.sourceforge.net/DTD/sodipodi-0.dtd"
   xmlns:inkscape="http://www.inkscape.org/namespaces/inkscape"
   height="264.42502"
   width="340.02362"
   xml:space="preserve"
   viewBox="0 0 340.02362 264.42501"
   y="0px"
   x="0px"
   sodipodi:docname="logo-projectectra.svg"
   inkscape:version="1.0beta1 (fe3e306, 2019-09-17)"
   id="svg8"
   version="1.1"
   inkscape:export-filename="C:\Users\Davide\Desktop\logo-projectectra.png"
   inkscape:export-xdpi="846.66669"
   inkscape:export-ydpi="846.66669"><metadata
   id="metadata34">
  <rdf:RDF>
    <cc:Work
   rdf:about="">
      <dc:format>image/svg+xml</dc:format>


      <dc:type
   rdf:resource="http://purl.org/dc/dcmitype/StillImage" />


      <dc:title />


    </cc:Work>


  </rdf:RDF>


</metadata>


<defs
   id="defs32" />



<style
   id="style2"
   type="text/css">
	.st0{fill:none;}
	.st1{fill:#4C4C4C;}
	.st2{font-family:'SpaceAge';}
	.st3{font-size:78.5151px;}
	.st4{font-size:31.406px;}
	.st5{letter-spacing:6;}
	.st6{opacity:0.5;}
	.st7{fill:#FF1FFF;}
	.st8{fill:#00F9FF;}
</style>



<sodipodi:namedview
   showgrid="false"
   pagecolor="#ffffff"
   inkscape:zoom="1.979899"
   inkscape:window-y="452"
   inkscape:window-x="-8"
   inkscape:window-width="1920"
   inkscape:window-maximized="1"
   inkscape:window-height="1017"
   inkscape:snap-perpendicular="true"
   inkscape:pageshadow="2"
   inkscape:pageopacity="0.0"
   inkscape:document-units="mm"
   inkscape:document-rotation="0"
   inkscape:cy="136.52067"
   inkscape:cx="142.51101"
   inkscape:current-layer="svg8"
   id="base"
   borderopacity="1.0"
   bordercolor="#666666">
	</sodipodi:namedview>

















<path
   style="fill:#ffffff;stroke-width:0.113341;fill-opacity:0.69999999"
   d="M 0,132.21251 V 0 H 170.01181 340.02362 V 132.21251 264.42503 H 170.01181 0 Z m 78.375448,100.83204 c 1.11438,-0.508 1.75795,-1.4172 1.84182,-2.60203 0.0295,-0.41612 -0.005,-0.97119 -0.0755,-1.23351 -0.17523,-0.6476 -0.75305,-1.37429 -1.42129,-1.78746 l -0.55387,-0.34245 -21.883777,-0.0567 -21.883775,-0.0567 -0.453365,-0.24423 c -0.795681,-0.42864 -0.898611,-0.73804 -0.945563,-2.84233 l -0.04105,-1.83982 21.688113,-0.0303 21.688107,-0.0303 0.59244,-0.26786 c 0.72065,-0.32581 1.39921,-1.03595 1.67171,-1.74949 0.30788,-0.80616 0.20035,-2.05765 -0.23766,-2.76613 -0.39464,-0.63831 -1.13195,-1.22905 -1.73752,-1.39211 -0.29877,-0.0804 -7.952512,-0.10848 -24.051904,-0.0881 -22.670933,0.0287 -23.6385,0.0383 -24.235248,0.24052 -0.731809,0.24798 -1.259393,0.75708 -1.452499,1.4016 -0.09495,0.31691 -0.135496,1.6666 -0.134124,4.46469 0.0023,4.69216 0.04653,5.01847 0.919966,6.78733 0.515758,1.0445 0.720612,1.32297 1.674649,2.27649 0.894545,0.89406 1.257583,1.16988 2.050407,1.55785 1.764647,0.86354 -0.250093,0.79717 24.36836,0.80269 21.207523,0.005 22.177653,-0.004 22.611573,-0.20169 z m 61.388822,-0.2672 c 0.70085,-0.48598 1.06796,-0.97845 1.29721,-1.74017 0.33118,-1.10043 0.0832,-2.15806 -0.70311,-2.99868 -0.99224,-1.06079 1.29663,-0.95164 -21.3501,-1.01822 -22.214162,-0.0653 -20.427252,0 -22.092182,-0.81013 -0.93269,-0.45396 -2.21112,-1.70564 -2.75902,-2.7013 -1.27799,-2.32243 -1.41152,-6.10607 -0.30798,-8.72727 0.7319,-1.73847 2.18825,-3.08107 4.07771,-3.7592 l 0.73672,-0.26441 20.061402,-0.0567 c 18.72918,-0.0529 20.09028,-0.0697 20.49642,-0.25341 1.54727,-0.69976 2.30049,-2.28805 1.83858,-3.87698 -0.23756,-0.81717 -0.96846,-1.63718 -1.7645,-1.97963 l -0.55942,-0.24066 -20.71628,0.0313 c -23.458052,0.0354 -21.143512,-0.0635 -23.323142,0.99692 -1.38338,0.67303 -2.37018,1.40876 -3.4992,2.60892 -3.53878,3.76174 -4.96039,9.12737 -3.81448,14.3971 0.31536,1.45023 0.72888,2.6113 1.47483,4.14093 1.11611,2.28866 2.5226,3.92111 4.49314,5.21498 1.099,0.72161 1.7383,1.00835 2.87582,1.28985 0.81427,0.20152 1.73572,0.2095 21.889412,0.18965 l 21.03935,-0.0207 z m 35.59155,0.21287 c 0.57501,-0.28138 1.2159,-0.94248 1.50017,-1.54748 0.23761,-0.5057 0.23991,-0.59602 0.27034,-10.62228 l 0.0307,-10.11226 10.22668,-0.0318 10.22669,-0.0318 0.64878,-0.31859 c 2.42478,-1.19072 2.36937,-4.58077 -0.0933,-5.70822 l -0.57931,-0.26522 -23.73306,0.0291 c -23.38414,0.0287 -23.73973,0.0324 -24.18643,0.25326 -1.18588,0.58625 -1.82863,1.74771 -1.73001,3.12611 0.0873,1.21973 0.71663,2.09634 1.90002,2.64644 0.50397,0.23426 0.63164,0.23746 10.73673,0.26832 l 10.22669,0.0312 0.0307,10.16947 0.0307,10.16947 0.33424,0.60337 c 0.34923,0.63045 0.91008,1.14998 1.55332,1.43887 0.51881,0.23302 2.04733,0.1755 2.60639,-0.0981 z m 35.87105,0.0481 c 0.65998,-0.29969 1.34266,-0.95124 1.64963,-1.57444 0.25243,-0.51246 0.26369,-0.65886 0.31976,-4.15808 0.032,-1.9948 0.10504,-3.72892 0.16236,-3.8536 0.21744,-0.47286 0.58922,-0.88179 1.04541,-1.14986 l 0.47248,-0.27765 8.48147,0.0378 c 9.62049,0.0429 9.46068,0.03 13.02267,1.0508 4.93736,1.41502 9.69786,3.95508 16.25985,8.67578 1.82568,1.31339 2.15807,1.46716 3.1715,1.46716 0.9953,0 1.80231,-0.39746 2.39245,-1.17828 0.98205,-1.29934 0.89267,-2.73697 -0.24702,-3.97339 -0.74044,-0.80328 -3.59587,-2.92624 -6.82703,-5.07579 -1.54516,-1.02791 -1.582,-1.10666 -0.51776,-1.10666 1.51459,0 3.66098,-0.8563 5.02669,-2.00537 1.04347,-0.87798 1.78862,-1.81414 2.32815,-2.92498 0.57997,-1.1941 0.79206,-2.0243 0.86985,-3.40487 0.21028,-3.7319 -1.94026,-7.07657 -5.49168,-8.54105 -1.78526,-0.73619 -0.2898,-0.69173 -23.2287,-0.69051 l -20.83241,0.001 -0.56671,0.26508 c -2.43624,1.13949 -2.49051,4.52195 -0.0914,5.69997 l 0.65816,0.32318 20.85478,0.0567 c 23.17199,0.063 21.10539,-0.0137 21.89744,0.81206 1.18222,1.23247 0.85566,3.03278 -0.70263,3.87365 l -0.45337,0.24463 -18.81464,0.0569 c -17.92429,0.0542 -18.84414,0.0669 -19.43801,0.26671 -1.47869,0.4976 -2.28735,0.99262 -3.35323,2.05258 -0.87373,0.8689 -1.10944,1.18715 -1.55592,2.10077 -0.82745,1.69315 -0.88825,2.18893 -0.84842,6.91863 l 0.0338,4.0188 0.33425,0.60337 c 0.35145,0.63445 0.91829,1.15747 1.55332,1.43322 0.55345,0.24033 1.86044,0.21654 2.43493,-0.0443 z m 58.9219,-0.0527 c 0.31169,-0.14761 0.72526,-0.44038 0.91905,-0.6506 0.32368,-0.35116 2.05404,-2.63922 12.16053,-16.08 3.95207,-5.25592 4.47737,-5.89733 5.21064,-6.36236 0.59733,-0.3788 1.29495,-0.43033 1.8613,-0.13747 0.91836,0.47491 1.98196,1.8019 9.57029,11.9402 4.26927,5.7039 7.89697,10.51743 8.06157,10.69675 0.78746,0.85786 2.43766,1.13277 3.58699,0.59756 1.55273,-0.72307 2.22017,-2.65113 1.44221,-4.16618 -0.17257,-0.33605 -4.11471,-5.68586 -8.76032,-11.88846 -5.95763,-7.95434 -8.64556,-11.45498 -9.1219,-11.87997 -0.76616,-0.68354 -2.34846,-1.50994 -3.4522,-1.80301 -0.90657,-0.2407 -3.17469,-0.26792 -4.08029,-0.049 -0.34285,0.0829 -1.18441,0.42153 -1.87013,0.75251 -1.63274,0.7881 -2.44282,1.53403 -4.12545,3.7988 -0.71788,0.96623 -4.48151,6.02918 -8.36363,11.25099 -3.88211,5.22181 -7.14781,9.65912 -7.2571,9.86069 -0.14175,0.26143 -0.19916,0.62636 -0.20028,1.2732 -0.001,0.7937 0.0401,0.98196 0.33265,1.5101 0.35145,0.63445 0.91829,1.15748 1.55332,1.43323 0.61551,0.26727 1.8645,0.21943 2.53275,-0.097 z M 78.402828,210.37606 c 1.11844,-0.5056 1.83591,-1.59717 1.84026,-2.7998 0.004,-0.98402 -0.26455,-1.66485 -0.90964,-2.30995 -0.99955,-0.99954 1.4767,-0.91212 -25.836398,-0.91212 -26.838619,0 -24.76708,-0.0599 -25.705235,0.74313 -1.316482,1.12686 -1.419225,3.30706 -0.215154,4.5655 0.433697,0.45329 1.062542,0.79318 1.704331,0.92123 0.259092,0.0517 11.283826,0.0865 24.499411,0.0773 l 24.028335,-0.0167 z M 174.97066,68.248348 174.94215,31.524119 153.09557,92.919058 c -12.01562,33.767222 -21.8083,61.408382 -21.76151,61.424792 0.0468,0.0164 9.87775,5.40959 21.84658,11.98483 l 21.76151,11.95499 0.0285,-36.65554 c 0.0157,-20.16056 0.0157,-53.181452 0,-73.379782 z m 20.65626,89.744852 c 7.2,-6.12961 13.08588,-11.19955 13.07973,-11.26655 -0.009,-0.0978 -25.99259,-73.460262 -26.51696,-74.868332 -0.12182,-0.32711 -0.14913,8.21005 -0.15572,48.671472 l -0.008,49.06816 0.25502,-0.23 c 0.14026,-0.12651 6.14593,-5.24515 13.34593,-11.37475 z"
   id="path867"
   inkscape:connector-curvature="0" />

</svg>
