<?xml version="1.0" encoding="utf-8"?>
<!-- Generator: Adobe Illustrator 24.0.2, SVG Export Plug-In . SVG Version: 6.00 Build 0)  -->
<svg version="1.1"
	 id="svg8" inkscape:version="1.0beta1 (fe3e306, 2019-09-17)" sodipodi:docname="disegno.svg" xmlns:cc="http://creativecommons.org/ns#" xmlns:dc="http://purl.org/dc/elements/1.1/" xmlns:inkscape="http://www.inkscape.org/namespaces/inkscape" xmlns:rdf="http://www.w3.org/1999/02/22-rdf-syntax-ns#" xmlns:sodipodi="http://sodipodi.sourceforge.net/DTD/sodipodi-0.dtd" xmlns:svg="http://www.w3.org/2000/svg"
	 xmlns="http://www.w3.org/2000/svg" xmlns:xlink="http://www.w3.org/1999/xlink" x="0px" y="0px" viewBox="0 0 1105.9 752.8"
	 style="enable-background:new 0 0 1105.9 752.8;" xml:space="preserve">
<style type="text/css">
	.st0{fill:#FFFFFF;}
	.st1{fill:#FFFFFF;stroke:#FFFFFF;stroke-width:10;stroke-miterlimit:10;}
</style>
<sodipodi:namedview  bordercolor="#666666" borderopacity="1.0" id="base" inkscape:current-layer="layer1" inkscape:cx="927.47351" inkscape:cy="501.03319" inkscape:document-rotation="0" inkscape:document-units="mm" inkscape:pageopacity="0.0" inkscape:pageshadow="2" inkscape:window-height="1017" inkscape:window-maximized="1" inkscape:window-width="1920" inkscape:window-x="1912" inkscape:window-y="-8" inkscape:zoom="0.49497475" pagecolor="#ffffff" showgrid="false">
	</sodipodi:namedview>
<path id="path891" inkscape:connector-curvature="0" class="st0" d="M457.8,173.7c-3.8-1.3-7-3.6-9.2-6.6c-3.5-4.8-3.4-3.7-3.4-47.3
	V80.2H490h44.8l-0.8,1.5c-1.2,2.3-3.1,10.2-3.6,14.9c-2.1,20.3,9.8,40.7,28.8,49.8c7.7,3.7,12.5,4.7,22,4.6c7.3,0,8.7-0.2,13-1.5
	c9.1-2.8,16-6.8,22.3-13.1c8.8-8.7,13.9-20.2,14.8-33.2c0.4-6.6-0.9-14.5-3.9-22.1c-0.3-0.9,1-1,24.2-1H676l-0.2,39.8l-0.2,39.8
	l-1.2,3.1c-1.7,4.1-5.5,8.1-9.6,10l-3.3,1.5l-100.5,0.1C465.5,174.7,460.5,174.6,457.8,173.7L457.8,173.7z M575.2,132.6
	C565,130,557.9,125,553.1,117c-5.8-9.5-5.8-21.7-0.2-31.9c2.5-4.6,9.1-10.7,14-13.1c10.6-5.2,23.8-4,32.8,3c6.5,5,11,12.3,12.5,20.1
	c1,5.4,1,7-0.1,12.2c-2.3,11.1-10.7,20.5-21.5,24.1C587.2,132.5,577.8,133.2,575.2,132.6L575.2,132.6z M445.3,58.4
	c0.2-15.8,0.2-16.5,1.4-18.9c2-4,4.7-6.8,8.7-8.8l3.6-1.8h101.3h101.3l3.3,1.5c4.1,1.9,8,6,9.6,10c1.1,2.9,1.2,4.1,1.4,18.7
	l0.2,15.6H650h-26.1l-2.4-3.4c-16.3-22.8-48-27.9-70.5-11.2c-4,3-9.2,8.3-11.7,11.9l-1.6,2.4l-46.3,0.1l-46.3,0.1L445.3,58.4z
	 M474.7,24.4c0.2-0.8,0.6-2.2,0.9-3l0.6-1.5h8.6h8.6l0.3,1.6c0.2,0.9,0.5,2.2,0.7,3l0.4,1.4h-10.2h-10.2L474.7,24.4z M521.2,25.8
	c0-0.1,2.4-3.7,5.4-8l5.4-7.9l28.2-0.1l28.2-0.1l1.6,2.6c0.9,1.4,3.1,5.1,5,8.1l3.5,5.6h-38.6C538.5,25.9,521.2,25.9,521.2,25.8
	L521.2,25.8z M570.1,17.8v-4.9h-10h-10v4.9v4.9h10h10V17.8z M622.5,24.7c0.2-0.7,1.1-2.8,1.9-4.8l1.5-3.5l11.3-0.1l11.3-0.1l1.6,4.2
	c0.9,2.3,1.7,4.5,1.8,4.9c0.1,0.5-3.1,0.7-14.8,0.7h-15L622.5,24.7z"/>
<path id="path889" inkscape:connector-curvature="0" sodipodi:nodetypes="csscccccssscsccssccscsssccsccsssscsscsssscsccsccsssssscssccssssccscccc" class="st0" d="
	M798.4,470.9c-9.9-1.1-18.7-7.2-23.1-16.1c-3.1-6.2-2.8-3.4-3-41.2c-0.1-37-0.1-36.6,2.1-41.9c2.1-5,7.2-11,11.3-13.5l1.6-0.9
	l-2.2-2.3c-5.9-6-9.6-12.6-11.7-20.5c-1.2-4.7-1.5-12.8-0.7-17.6c2.1-12.2,9-22.9,19-29.5c5.2-3.4,9.9-5.4,15.9-6.7
	c4.3-0.9,12.8-0.9,17,0c6.7,1.4,12.7,4.1,17.7,7.8c14.6,10.9,21,28.8,16.5,46.6c-1.1,4.4-4.4,11.2-7.4,15.1c-1.2,1.6-2.2,3-2.2,3.1
	c0,0.1,5.9,0.2,13.2,0.2c7.3,0,13.2-0.1,13.2-0.1c0-0.1-1-1.2-2.2-2.5c-5.9-6.4-10.1-14.9-12.2-24.3c-1-4.8-0.9-15.5,0.2-20.5
	c3.5-15.7,13.9-28.9,28.1-35.6c14.1-6.7,30.9-6.7,44.8,0.1c10.7,5.3,18.8,13.4,23.9,24c3.7,7.8,4.8,12.9,4.8,22.3
	c0,5.7-0.1,7.2-0.8,10.5c-2.9,13.1-10.2,23.9-21.3,31.6l-2.6,1.8l2,2c4.7,4.8,8.1,12.3,8.1,18c0,1.1,0.1,1.9,0.3,1.9
	c0.2,0,9.2-5.9,20-13.1c10.8-7.2,20.2-13.3,20.9-13.6c0.9-0.4,2.4-0.6,4.7-0.6c3,0,3.7,0.1,5.5,1c2.7,1.3,5.2,3.7,6.4,6.3l1,2.1
	l0.1,46.8c0.1,51.5,0.2,48.7-2.1,52.2c-3,4.5-9.4,6.7-14.7,5.2c-1.3-0.4-7.9-4.6-21.5-13.6c-10.8-7.2-19.9-13.1-20.1-13.2
	c-0.4-0.1-0.5,0.3-0.5,1.8c0,4.1-1.8,9.6-4.6,13.8c-4.1,6.4-10.2,10.7-18.2,12.8c-2.2,0.6-6.7,0.6-63.5,0.7
	C828.5,471.2,799.9,471.1,798.4,470.9L798.4,470.9z M823.8,347.1c5.5-1.8,11-6.3,13.6-11.2c4.5-8.4,4.1-17.6-1.1-25.4
	c-1-1.5-2.7-3.5-3.9-4.5c-2.6-2.3-7.8-4.9-11.1-5.6c-10.7-2.2-21.7,3-26.5,12.7c-2.1,4.2-2.4,5.7-2.4,11.2c0,4.6,0.1,5.3,1,7.8
	c1.2,3.1,1.9,4.5,3.9,7.2c2.9,3.8,8.6,7.4,13.7,8.6C814.5,348.6,820.2,348.3,823.8,347.1L823.8,347.1z M919.1,344.3
	c1.5-0.4,3.9-1.3,5.4-2c14.9-7.3,20.4-25.8,12-40.2c-0.9-1.5-2.8-3.9-4.6-5.6c-3.5-3.5-6.8-5.5-11.4-7.1c-2.6-0.9-3.4-1-8.3-1
	c-4.7,0-5.8,0.1-8.1,0.8c-7.8,2.4-14.1,7.7-17.5,14.7c-2.4,4.8-2.9,7.1-2.9,12.7c0,5.6,0.5,7.9,2.9,12.7c2,4,4.1,6.8,7.3,9.4
	C900.8,344.6,910,346.6,919.1,344.3L919.1,344.3z"/>
<path id="path893" inkscape:connector-curvature="0" class="st0" d="M437.4,647.2v-93.6h80.1h80.1l8.2-8.8
	c16.5-17.8,33.8-31.6,43.8-35c7.2-2.4,11.3-0.2,10.4,5.5c-1.1,7.1-12.9,23.7-28,39.3l-5.9,6.1v13.3c0,7.3,0.2,13.3,0.3,13.3
	c0.2,0,3.1-2.9,6.4-6.3l6-6.3l10.7,10.3c5.9,5.7,10.7,10.5,10.7,10.7s-7.7,8.4-17.1,18.2L626,631.5v54.6v54.6h-94.3h-94.3V647.2z
	 M610.6,686.5l0-38.9l-3.5,3.7c-12.3,13-32.3,33.6-32.6,33.6c-0.3,0-13.6-12.6-19.9-18.8l-1.9-1.8l28.9-30.2l28.9-30.2v-13.7
	c0-7.5-0.1-13.7-0.3-13.7c-0.2,0-6,5.6-13,12.5c-7,6.9-12.9,12.5-13.2,12.5c-1.9,0-11.7-8.9-14.6-13.3l-1.3-2l7.3-8.2
	c4-4.5,7.3-8.3,7.3-8.4s-29.2-0.3-65-0.3h-65v78v78h78.9h78.9L610.6,686.5L610.6,686.5z M528.5,710.3c-0.1-0.4,4.2-9.8,9.7-21
	l10-20.3l10.6,10.1c5.8,5.6,10.6,10.3,10.7,10.5c0.1,0.3-38.7,20.8-40.2,21.1C529.1,710.9,528.7,710.7,528.5,710.3L528.5,710.3z
	 M496.6,679.1c0-3.4,0.9-12.4,1.7-16.7c2.6-14.1,7.1-22.4,15.2-27.7c5.9-3.9,14.9-6.9,20.5-6.9c2.3,0,2.8-0.4,5.4-4.3
	c5.3-8.1,24.9-33.1,26.3-33.5c0.3-0.1,1.1,0.7,1.8,1.8c1.8,2.8,8.1,8.9,11.1,10.9c1.5,1,2.6,1.9,2.6,2c0,0.3-7.4,7-15.6,14.1
	c-6.2,5.4-13.7,11.3-18.1,14.5c-3,2.1-3.2,2.4-3.5,4.6c-0.6,4.2-2.3,9.5-4.2,13.2c-4.2,8.2-9.3,12-20.9,15.6
	c-9.2,2.8-12.7,4.9-18.6,10.9l-3.7,3.8L496.6,679.1z M653.9,580.4c-5.8-5.6-10.6-10.3-10.6-10.4c0-0.5,16.8-17.6,18.1-18.4
	c0.9-0.6,2.4-0.9,3.7-0.9c2.1,0,2.2,0.1,10.4,8.1c8.9,8.7,9,8.9,7.6,12.3c-0.7,1.6-17.4,19.5-18.2,19.5
	C664.7,590.6,659.8,586,653.9,580.4L653.9,580.4z"/>
<path id="path895" inkscape:connector-curvature="0" class="st0" d="M136,465.4c-6.5-0.8-12.3-3.5-16.3-7.5c-3.1-3.1-5-6.1-6.5-10.6
	l-0.8-2.4v-76.8v-76.8l0.6-2.2c1.2-4.2,3.4-7.7,6.8-10.9c3.4-3.2,6.4-5,10.7-6.3l2.5-0.8l90.8-0.1c98.9-0.1,92.3-0.2,96.6,1.5
	c4.5,1.8,9.4,5.5,12,9.2c1.7,2.4,3.4,6,4,8.6c0.5,2,0.5,6,0.5,77.7c0,72.9,0,75.6-0.5,77.5c-1.5,5.6-4.7,10.6-8.9,14.1
	c-3.6,3-8.9,5-15,5.7c-1.9,0.2-29.2,0.3-89.1,0.3C175.8,465.5,136.5,465.4,136,465.4L136,465.4z M315,450c3.1-1.2,5.8-4.2,6.7-7.2
	c0.5-1.8,0.5-3.8,0.7-56c0.1-29.8,0.2-57.9,0.2-62.6l0-8.4l-98.4-0.1l-98.4-0.1l0.2,1.2c0.5,4.1,0.7,21,0.7,70
	c0,50.3,0,54.5,0.4,55.7c1.5,3.9,4.6,6.8,8.5,7.8c1.1,0.3,20.1,0.3,89.7,0.3C309,450.5,313.8,450.5,315,450L315,450z M143.6,435.1
	c-1.3-0.4-1.6-1.1-1.4-3.7c0.2-3.6-4.4-3.2,37.4-3.3c42.2-0.1,37.4-0.5,37.4,3.6c0,2.4,0,2.5-0.7,3.1l-0.7,0.6l-35.5,0
	C158.9,435.4,144.1,435.3,143.6,435.1L143.6,435.1z M241.1,435c-1.2-0.6-1.5-1.6-1.3-3.8c0.2-2.2,0.3-2.4,1.4-2.7
	c1-0.3,12.9-0.4,45-0.3c23.3,0,21-0.4,21,3.6c0,2.2-0.1,2.5-0.7,3.1l-0.7,0.7l-31.9,0C244.1,435.5,242,435.4,241.1,435L241.1,435z
	 M144.1,420.3c-1.7-0.4-2-1-2-3.2c0-1.1,0.1-2.3,0.2-2.6c0.4-1.4-0.5-1.4,37.7-1.4h35.8l0.5,0.7c0.8,1,0.8,5,0,6l-0.5,0.7l-35.4,0
	C160.9,420.5,144.6,420.4,144.1,420.3L144.1,420.3z M240.9,420.3c-0.9-0.4-1.2-1.2-1.2-3.6c0-2.6,0.4-3.2,2-3.5
	c0.5-0.1,15-0.1,32.1-0.1c35.4,0.1,32.8-0.1,33.2,2.3c0.1,0.7,0.1,1.9,0,2.7c-0.3,2.6,2.8,2.4-33.6,2.5
	C255.3,420.5,241.2,420.4,240.9,420.3L240.9,420.3z M149.1,405.3c-1-0.1-2.5-0.6-3.4-1c-2-1-3.2-2.9-3.7-5.6
	c-0.2-1.4-0.3-11.2-0.2-35.6c0.1-32.4,0.1-33.8,0.6-35.1c0.7-1.8,2.5-3.6,4.3-4.3c1.3-0.5,2.7-0.5,31.5-0.6c21-0.1,30.6,0,31.9,0.2
	c2.3,0.4,3.6,1.1,4.9,2.5c2,2.2,1.9,0.3,2,38.4c0.1,39.2,0.2,36.4-2.3,39c-2.5,2.5-0.2,2.4-34,2.4
	C164.3,405.6,150.1,405.5,149.1,405.3L149.1,405.3z M209.3,364.2v-33.6l-1.8-0.3c-1.2-0.2-10.5-0.3-29.2-0.3
	c-27.3,0-27.4,0-28.2,0.6l-0.7,0.6v33.3v33.3h29.9h29.9L209.3,364.2z M158.8,390.2c-1.3-0.5-1.8-1.6-1.8-3.8c0-2.4,0.6-3.9,2-5.1
	c1.1-1,2.5-1.6,7.3-3.1c4.2-1.3,5.4-2.1,6.2-3.6c1-2.2,0.7-3.8-1.2-6.7c-0.6-0.8-1.5-2.5-2.1-3.8c-0.7-1.5-1.4-2.6-2.1-3.1
	c-1.3-1-1.8-2.3-2.1-4.8l-0.2-1.9l0.9-0.8c0.9-0.7,0.9-0.8,1.2-4c0.3-3.7,0.6-5,1.5-6.4c0.8-1.3,2.1-2.1,3.9-2.5
	c0.8-0.2,2.4-0.8,3.7-1.5c2.2-1.1,2.3-1.1,4.5-1c1.9,0.1,2.6,0.3,4.4,1.2c2.7,1.3,5.1,3.6,6.3,6c0.7,1.5,0.8,2,0.8,4.4l0,2.7
	l1.1,1.2c1.1,1.2,1.1,1.2,1,3.1c-0.2,2.3-0.8,3.5-2.3,4.5c-0.9,0.6-1.5,1.5-3.4,5.1c-2.1,4-2.3,4.5-2.3,5.9c0,3.5,1.2,4.3,9.4,6.8
	c1.5,0.5,3.3,1.2,3.9,1.6c3,2,3.7,7.6,1.2,9.2c-0.9,0.5-1.6,0.5-21,0.5C168.4,390.4,159.1,390.3,158.8,390.2L158.8,390.2z
	 M247,405.4c-3.2-0.1-6-0.3-6.3-0.4c-0.8-0.4-1.2-2.3-0.9-4.3c0.4-2.9-2.7-2.7,34-2.7c37.3,0,33.3-0.4,33.3,3.6
	c0,2.8-0.3,3.4-1.9,3.7C304.1,405.7,256.6,405.6,247,405.4L247,405.4z M240.3,389.8c-0.6-0.6-0.7-0.9-0.7-3c0-2,0.1-2.4,0.6-3
	l0.6-0.6l31.8,0c21,0,32.2,0.1,32.9,0.3c0.9,0.3,1.1,0.4,1.4,1.4c0.4,1.6,0.1,4.3-0.6,4.9c-0.5,0.5-2.1,0.5-32.9,0.6l-32.3,0.1
	L240.3,389.8L240.3,389.8z M242,375.3c-2.1-0.5-2.6-1.5-2.2-4.4c0.2-2,0.8-2.5,2.7-2.7c0.8-0.1,15.5-0.1,32.5-0.1l31,0.1l0.5,0.7
	c0.8,1,0.8,5,0,6l-0.5,0.7l-31.6,0C257.1,375.5,242.5,375.4,242,375.3L242,375.3z M241.7,360.4c-1.7-0.3-2-0.8-2-3.6
	c0-2.1,0.1-2.4,0.7-3l0.7-0.7l31.6,0c20.4,0,31.9,0.1,32.6,0.3c0.6,0.2,1.2,0.5,1.4,0.7c0.4,0.5,0.5,3.6,0.2,4.9
	c-0.4,1.5,0.8,1.5-32.8,1.5C256.9,360.5,242.3,360.5,241.7,360.4L241.7,360.4z M240.3,344.8c-0.6-0.6-0.7-0.9-0.7-3.1
	c0-3.1,0.3-3.4,3-3.6c1.7-0.1,19.4-0.1,30,0c4.3,0.1,4.4,0.2,4.4,3.6c0,2.2-0.1,2.5-0.7,3.1l-0.7,0.7h-17.3H241L240.3,344.8z
	 M252.4,300.1c2-0.8,2-1.1,2-6.9c0-5.8-0.1-6.5-1.7-7.1c-1.3-0.5-10.5-0.5-11.5,0c-1.4,0.8-1.6,1.8-1.5,7.2c0.1,4.4,0.1,5,0.7,5.7
	c0.3,0.4,1,0.9,1.5,1.1C243.3,300.6,251.2,300.6,252.4,300.1L252.4,300.1z M282.7,300.1c0.4-0.2,0.9-0.7,1.3-1.1
	c0.5-0.7,0.6-1.2,0.6-5.9c0-7.4-0.1-7.5-7.4-7.5c-7.3,0-7.4,0.1-7.4,7.4c0,7.4,0.1,7.4,7.6,7.4C280.5,300.5,282.2,300.4,282.7,300.1
	L282.7,300.1z M312.5,300.1c0.5-0.2,1.2-0.7,1.5-1.1c0.5-0.7,0.6-1.2,0.6-5.8c0-7.5,0-7.5-6.3-7.6c-5.2-0.1-6.5,0.1-7.6,0.9
	l-0.8,0.7l-0.1,4.8c-0.1,6.7,0,7.3,2.1,8C303.4,300.6,311.1,300.6,312.5,300.1L312.5,300.1z"/>
<line class="st1" x1="221.7" y1="29.5" x2="901.7" y2="709.5"/>
<line class="st1" x1="901.7" y1="29.5" x2="221.7" y2="709.5"/>
</svg>
