<?xml version="1.0" encoding="UTF-8" standalone="no"?>
<svg
   xmlns:dc="http://purl.org/dc/elements/1.1/"
   xmlns:cc="http://creativecommons.org/ns#"
   xmlns:rdf="http://www.w3.org/1999/02/22-rdf-syntax-ns#"
   xmlns:svg="http://www.w3.org/2000/svg"
   xmlns="http://www.w3.org/2000/svg"
   xmlns:sodipodi="http://sodipodi.sourceforge.net/DTD/sodipodi-0.dtd"
   xmlns:inkscape="http://www.inkscape.org/namespaces/inkscape"
   height="456.67874"
   width="608.55139"
   version="1.1"
   id="svg8"
   inkscape:version="1.0beta1 (fe3e306, 2019-09-17)"
   sodipodi:docname="logo-home.svg"
   x="0px"
   y="0px"
   viewBox="0 0 608.55132 456.67875"
   xml:space="preserve"><metadata
   id="metadata16">
  <rdf:RDF>
    <cc:Work
   rdf:about="">
      <dc:format>image/svg+xml</dc:format>



      <dc:type
   rdf:resource="http://purl.org/dc/dcmitype/StillImage" />



      <dc:title />



    </cc:Work>



  </rdf:RDF>



</metadata>



<defs
   id="defs14">
  
  
  
  
  
  
  
</defs>




<style
   type="text/css"
   id="style2">
	.st0{fill:#FFFFFF;}
	.st1{fill:#FFFFFF;stroke:#FFFFFF;stroke-width:10;stroke-miterlimit:10;}
</style>




<sodipodi:namedview
   bordercolor="#666666"
   borderopacity="1.0"
   id="base"
   inkscape:current-layer="svg8"
   inkscape:cx="581.58041"
   inkscape:cy="294.92468"
   inkscape:document-rotation="0"
   inkscape:document-units="mm"
   inkscape:pageopacity="0.0"
   inkscape:pageshadow="2"
   inkscape:window-height="1017"
   inkscape:window-maximized="1"
   inkscape:window-width="1920"
   inkscape:window-x="-8"
   inkscape:window-y="452"
   inkscape:zoom="0.7"
   pagecolor="#ffffff"
   showgrid="false"
   inkscape:pagecheckerboard="true">
	</sodipodi:namedview>





























<path
   inkscape:connector-curvature="0"
   id="path963"
   d="m 24.677597,451.39781 c -14.337488,-7.09682 -25.12727166,-23.78553 -24.14214166,-37.3407 0.62159596,-8.56039 1.44209696,-9.74249 6.75601396,-9.74249 5.0755737,0 6.2809307,1.435 7.4981857,8.92394 2.001522,12.31341 8.451353,21.29312 18.228478,25.37822 12.341817,5.15692 530.580947,5.15692 542.922937,0 9.77695,-4.0851 16.22677,-13.06481 18.22831,-25.37822 1.21654,-7.48948 2.42279,-8.92394 7.49836,-8.92394 5.31444,0 6.13495,1.18458 6.76808,9.76558 0.98212,13.32056 -10.42571,30.63673 -24.75396,37.57281 -10.30087,4.98677 -12.57447,5.02762 -279.36236,5.02566 l -268.976965,-0.002 z M 279.53197,405.61162 C 214.32295,393.72338 164.13608,345.66324 151.00714,282.53319 133.72223,199.4191 186.27224,116.83782 268.8363,97.36721 c 19.43402,-4.58309 52.23424,-4.49251 72.14067,0.19892 29.02502,6.84071 50.16628,19.01061 73.33998,42.21787 32.11008,32.15661 46.21579,65.20226 46.37777,108.64984 0.26461,70.84704 -40.88289,128.3142 -108.00764,150.8473 -20.81272,6.98653 -53.86602,9.84657 -73.15511,6.33013 z m 57.82857,-17.47547 c 48.44376,-10.42589 91.60025,-53.14389 104.76985,-103.70533 4.28775,-16.46155 4.69942,-46.46567 0.88444,-64.49524 -8.72166,-41.22547 -39.9663,-80.23256 -78.86292,-98.45589 -42.52904,-19.92507 -97.93606,-15.81102 -137.07884,10.17833 -39.21151,26.03496 -60.70157,64.10239 -63.18208,111.92046 -2.20098,42.43084 10.15914,75.25325 39.50258,104.89933 37.29115,37.67581 81.86558,50.87134 133.96643,39.65834 z M 184.42452,255.43795 c -6.37098,-6.37098 2.2379,-45.83946 14.68557,-67.32847 20.31508,-35.07116 67.47622,-62.65053 102.22896,-59.78267 8.0166,0.66244 9.22959,1.56109 9.22959,6.84765 0,5.64387 -1.10998,6.22302 -15.28053,7.97165 -21.11693,2.60571 -39.3765,9.93962 -56.16075,22.55655 -23.10887,17.37121 -37.91273,43.66583 -41.16473,73.11673 -1.59483,14.44068 -2.59755,17.02614 -6.84001,17.63336 -2.73448,0.3907 -5.74849,-0.071 -6.6981,-1.01409 z M 1.7338953,111.71731 C -1.5788437,108.40457 0.08223234,93.4661 4.7903563,84.23864 11.079807,71.91031 21.308207,63.60228 34.872788,59.80453 43.370498,57.42525 46.61432,55.05875 48.882254,49.58341 55.193016,34.34763 59.924055,32.88103 102.7614,32.88103 c 37.71969,0 38.90906,0.15983 44.63162,5.87937 3.23371,3.23353 6.59084,8.71385 7.46036,12.17807 1.42433,5.67693 2.73182,6.29888 13.23443,6.29888 11.92197,0 14.61027,-2.20578 14.61027,-11.98823 0,-7.99527 14.45293,-33.25327 22.4681,-39.26531 L 213.14335,0 h 91.33617 91.33616 l 7.68519,5.76785 c 9.42389,7.07248 19.94693,25.84299 22.33135,39.83328 l 1.77598,10.41843 73.00433,1.26805 c 40.15242,0.69796 75.19658,2.22991 77.87565,3.40473 18.06705,7.92211 31.28549,26.61341 29.97339,42.38358 -0.5914,7.11565 -1.85732,9.12055 -6.13991,9.72954 -4.22773,0.60204 -5.69575,-0.71573 -6.78975,-6.08913 -2.26669,-11.1354 -9.25002,-23.15186 -16.60861,-28.57942 -6.56384,-4.84151 -10.32982,-5.10275 -84.02926,-5.82984 -42.4365,-0.41913 -78.00547,-1.59483 -79.04194,-2.61513 -1.03716,-1.01941 -2.88365,-7.9928 -4.10464,-15.4956 -2.58565,-15.88596 -7.8136,-26.97519 -16.52265,-35.04667 l -6.20919,-5.75434 h -84.70411 -84.70394 l -7.28401,7.28418 c -8.13949,8.13931 -13.97021,22.331 -16.20724,39.44736 -1.74402,13.33813 -1.44564,13.21897 -30.35931,12.16955 L 144.49249,71.52387 141.06591,60.11763 137.63933,48.7114 103.28354,48.0383 C 65.363884,47.29416 64.178407,47.70797 61.125862,62.73187 59.62338,70.13007 58.597391,70.81596 45.006529,73.51455 29.01952,76.68876 18.376065,85.60614 15.763779,98.01473 13.165694,110.3562 6.6942073,116.67655 1.7342503,111.7166 Z"
   style="fill:#ffffff;stroke-width:2.43563;fill-opacity:1" />
</svg>
